HIERARCHY
ROOT joint_Root
{
	OFFSET 0.0 0.0 0.0
	CHANNELS 6 Xposition Yposition Zposition Zrotation Xrotation Yrotation 
	JOINT Hips
	{
		OFFSET 4.5925 91.4895 -427.239
		CHANNELS 6 Xposition Yposition Zposition Zrotation Xrotation Yrotation 
		JOINT Spine
		{
			OFFSET 15.7357 0.0 0.0
			CHANNELS 6 Xposition Yposition Zposition Zrotation Xrotation Yrotation 
			JOINT Chest
			{
				OFFSET 8.98455 -0.406207 0.0
				CHANNELS 6 Xposition Yposition Zposition Zrotation Xrotation Yrotation 
				JOINT Neck
				{
					OFFSET 16.3773 0.0 0.0
					CHANNELS 6 Xposition Yposition Zposition Zrotation Xrotation Yrotation 
					JOINT Head
					{
						OFFSET 6.45672 0.0 0.0
						CHANNELS 6 Xposition Yposition Zposition Zrotation Xrotation Yrotation 
						End Site
						{
							OFFSET 0.0 0.0 0.0
						}
					}
				}
				JOINT Shoulder_L
				{
					OFFSET 12.9942 -0.242716 4.98039
					CHANNELS 6 Xposition Yposition Zposition Zrotation Xrotation Yrotation 
					JOINT UpperArm_L
					{
						OFFSET 5.34809 0.0 0.0
						CHANNELS 6 Xposition Yposition Zposition Zrotation Xrotation Yrotation 
						JOINT LowerArm_L
						{
							OFFSET 24.3286 1.87007e-05 0.0
							CHANNELS 6 Xposition Yposition Zposition Zrotation Xrotation Yrotation 
							JOINT Hand_L
							{
								OFFSET 22.2916 0.0 0.0
								CHANNELS 6 Xposition Yposition Zposition Zrotation Xrotation Yrotation 
								End Site
								{
									OFFSET 0.0 0.0 0.0
								}
							}
						}
					}
				}
				JOINT Shoulder_R
				{
					OFFSET 12.9945 -0.242716 -4.98039
					CHANNELS 6 Xposition Yposition Zposition Zrotation Xrotation Yrotation 
					JOINT UpperArm_R
					{
						OFFSET -5.34813 0.0 0.0
						CHANNELS 6 Xposition Yposition Zposition Zrotation Xrotation Yrotation 
						JOINT LowerArm_R
						{
							OFFSET -24.3289 0.000322201 0.0
							CHANNELS 6 Xposition Yposition Zposition Zrotation Xrotation Yrotation 
							JOINT Hand_R
							{
								OFFSET -22.2915 -0.000108084 0.0
								CHANNELS 6 Xposition Yposition Zposition Zrotation Xrotation Yrotation 
								End Site
								{
									OFFSET 0.0 0.0 0.0
								}
							}
						}
					}
				}
			}
		}
		JOINT UpperLeg_L
		{
			OFFSET -2.19248 -6.46944 0.0
			CHANNELS 6 Xposition Yposition Zposition Zrotation Xrotation Yrotation 
			JOINT LowerLeg_L
			{
				OFFSET 39.0811 0.0 -1.23785e-05
				CHANNELS 6 Xposition Yposition Zposition Zrotation Xrotation Yrotation 
				JOINT Foot_L
				{
					OFFSET 40.9854 0.0 -1.26872e-05
					CHANNELS 6 Xposition Yposition Zposition Zrotation Xrotation Yrotation 
					JOINT Toes_L
					{
						OFFSET 11.7543 0.0 0.0
						CHANNELS 6 Xposition Yposition Zposition Zrotation Xrotation Yrotation 
						End Site
						{
							OFFSET 0.0 0.0 0.0
						}
					}
				}
			}
		}
		JOINT UpperLeg_R
		{
			OFFSET -2.19251 6.46944 0.0
			CHANNELS 6 Xposition Yposition Zposition Zrotation Xrotation Yrotation 
			JOINT LowerLeg_R
			{
				OFFSET -39.0811 -0.00228153 -0.0401928
				CHANNELS 6 Xposition Yposition Zposition Zrotation Xrotation Yrotation 
				JOINT Foot_R
				{
					OFFSET -40.9854 0.0 0.0
					CHANNELS 6 Xposition Yposition Zposition Zrotation Xrotation Yrotation 
					JOINT Toes_R
					{
						OFFSET -11.7543 0.0 0.0
						CHANNELS 6 Xposition Yposition Zposition Zrotation Xrotation Yrotation 
						End Site
						{
							OFFSET 0.0 0.0 0.0
						}
					}
				}
			}
		}
	}
}
MOTION
Frames:	4
Frame Time:	0.0333333
0.000000 0.000000 0.000000 0.000000 0.000000 -0.000000 -3.833240 89.382700 -54.044500 82.870600 12.666700 -16.624400 15.735700 0.000005 -0.000001 41.772100 81.975100 -38.230500 8.984550 -0.406207 -0.000000 3.376170 -12.092900 7.454170 16.377300 -0.000001 -0.000001 -0.634723 -2.077060 0.501172 6.456720 -0.000001 -0.000000 -7.735900 2.285900 6.630250 12.994200 -0.242716 4.980390 -86.516000 -11.283000 -72.716500 5.348090 -0.000007 -0.000001 -65.218700 6.192160 -45.803700 24.328600 0.000019 0.000005 6.038910 -2.250130 -110.362000 22.291600 -0.000001 0.000005 3.052410 5.470990 -5.410040 12.994500 -0.242716 -4.980390 90.072500 -0.199166 -70.068600 -5.348130 -0.000001 -0.000004 -65.979200 29.678700 36.995800 -24.328900 0.000322 -0.000009 -4.602560 -3.978460 -49.234400 -22.291500 -0.000108 -0.000004 7.238140 5.619030 -12.542900 -2.192480 -6.469440 -0.000000 -167.064000 -9.764110 1.116620 39.081100 -0.000007 -0.000012 0.032597 -0.067245 25.861500 40.985400 -0.000006 -0.000013 -0.439980 10.999000 -41.333500 11.754300 -0.000000 0.000003 -0.195541 -0.637656 -43.874600 -2.192510 6.469440 -0.000001 -168.608000 2.001250 116.045000 -39.081100 -0.002282 -0.040193 0.065982 0.005960 95.512700 -40.985400 0.000008 0.000006 10.676800 -9.557720 -49.073200 -11.754300 -0.000006 -0.000006 -0.011361 -0.113543 -21.200900
0.000000 0.000000 0.000000 0.000000 0.000000 -0.000000 -3.845100 92.057000 -40.869700 84.677800 12.869400 -16.246500 15.735700 0.000005 -0.000001 38.286000 81.250500 -34.789200 8.984550 -0.406207 -0.000000 3.600650 -13.847000 7.450130 16.377300 -0.000001 -0.000001 1.674900 -1.174260 -0.152107 6.456720 -0.000001 -0.000000 -10.149600 3.618810 6.611620 12.994200 -0.242716 4.980390 -85.959500 -12.568500 -72.016000 5.348090 -0.000007 -0.000001 -64.451600 7.305490 -45.194400 24.328600 0.000019 0.000005 5.808020 -2.532600 -113.479000 22.291600 -0.000001 0.000005 3.699370 5.459310 -4.975970 12.994500 -0.242716 -4.980390 91.445800 -3.747900 -68.895700 -5.348130 -0.000001 -0.000004 -68.189400 26.461300 40.983900 -24.328900 0.000322 -0.000009 -5.854920 -4.417460 -53.079000 -22.291500 -0.000108 -0.000004 8.974380 5.622320 -12.781100 -2.192480 -6.469440 -0.000000 -162.261000 -18.997000 8.374550 39.081100 -0.000007 -0.000012 0.082210 -0.212697 21.132300 40.985400 -0.000006 -0.000013 -9.574960 11.350100 -25.430100 11.754300 -0.000000 0.000003 -0.002612 -0.036137 -18.046300 -2.192510 6.469440 -0.000001 -171.722000 2.057020 119.668000 -39.081100 -0.002282 -0.040193 0.170164 -0.045171 74.876100 -40.985400 0.000008 0.000006 9.578600 -8.293800 -56.824900 -11.754300 -0.000006 -0.000006 -0.013727 -0.129647 -21.860800
0.000000 0.000000 0.000000 0.000000 0.000000 -0.000000 -3.568890 92.836100 -28.113000 86.991800 14.779100 -16.607300 15.735700 0.000005 -0.000001 32.517200 80.366700 -29.167600 8.984550 -0.406207 -0.000000 3.196590 -16.364500 7.187650 16.377300 -0.000001 -0.000001 2.217580 -1.173930 0.263316 6.456720 -0.000001 -0.000000 -9.814210 4.693560 5.874430 12.994200 -0.242716 4.980390 -85.752300 -13.306200 -72.114700 5.348090 -0.000007 -0.000001 -64.200700 8.921220 -42.061400 24.328600 0.000019 0.000005 6.348240 -3.108970 -115.987000 22.291600 -0.000001 0.000005 3.141610 5.448630 -4.589720 12.994500 -0.242716 -4.980390 92.145100 -5.254100 -67.751600 -5.348130 -0.000001 -0.000004 -69.271500 24.371900 43.905400 -24.328900 0.000322 -0.000009 -7.184970 -4.694590 -56.997000 -22.291500 -0.000108 -0.000004 10.193600 5.621890 -12.742100 -2.192480 -6.469440 -0.000000 -160.019000 -18.239800 10.232100 39.081100 -0.000007 -0.000012 0.129561 -0.231720 29.210900 40.985400 -0.000006 -0.000013 -6.096080 7.698470 -31.666100 11.754300 -0.000000 0.000003 -0.004592 -0.057467 -18.914700 -2.192510 6.469440 -0.000001 -173.565000 6.445210 123.798000 -39.081100 -0.002282 -0.040193 0.138734 -0.103194 52.707500 -40.985400 0.000008 0.000006 6.841410 -1.782680 -62.189200 -11.754300 -0.000006 -0.000006 -0.014625 -0.135443 -22.098600
0.000000 0.000000 0.000000 0.000000 0.000000 -0.000000 -3.126510 92.544900 -14.950100 90.721500 16.818200 -14.759800 15.735700 0.000005 -0.000001 32.259200 79.092200 -29.816500 8.984550 -0.406207 -0.000000 4.472480 -18.490400 5.641150 16.377300 -0.000001 -0.000001 1.273350 -2.323280 0.958135 6.456720 -0.000001 -0.000000 -8.740540 5.325540 5.445520 12.994200 -0.242716 4.980390 -85.976500 -13.372200 -73.083800 5.348090 -0.000007 -0.000001 -65.606900 11.371600 -36.443300 24.328600 0.000019 0.000005 6.300300 -3.243210 -117.132000 22.291600 -0.000001 0.000005 2.452060 5.436880 -4.177500 12.994500 -0.242716 -4.980390 91.698500 -3.901220 -66.447100 -5.348130 -0.000001 -0.000004 -68.920500 22.090800 44.218100 -24.328900 0.000322 -0.000009 -9.133000 -5.395640 -59.670800 -22.291500 -0.000108 -0.000004 12.335500 5.631460 -13.436100 -2.192480 -6.469440 -0.000000 -161.592000 -10.487500 13.381900 39.081100 -0.000007 -0.000012 0.196419 -0.250886 38.057300 40.985400 -0.000006 -0.000013 -2.904820 -1.486580 -32.064500 11.754300 -0.000000 0.000003 -0.004378 -0.055324 -18.827400 -2.192510 6.469440 -0.000001 -175.590000 13.411600 131.195000 -39.081100 -0.002282 -0.040193 -0.005604 0.014662 31.269200 -40.985400 0.000008 0.000006 1.724790 7.455180 -67.338000 -11.754300 -0.000006 -0.000006 -0.017410 -0.152498 -22.799100
